<svg width="77" height="12" viewBox="0 0 77 12" fill="none" xmlns="http://www.w3.org/2000/svg">
<path d="M1.07386 11V3.36364H2.24716V11H1.07386ZM1.67045 2.09091C1.44176 2.09091 1.24455 2.01302 1.07884 1.85724C0.91643 1.70147 0.835227 1.5142 0.835227 1.29545C0.835227 1.0767 0.91643 0.889441 1.07884 0.733664C1.24455 0.577888 1.44176 0.5 1.67045 0.5C1.89915 0.5 2.0947 0.577888 2.2571 0.733664C2.42282 0.889441 2.50568 1.0767 2.50568 1.29545C2.50568 1.5142 2.42282 1.70147 2.2571 1.85724C2.0947 2.01302 1.89915 2.09091 1.67045 2.09091ZM7.71715 3.36364V4.35795H3.75977V3.36364H7.71715ZM4.91317 1.53409H6.08647V8.8125C6.08647 9.14394 6.13453 9.39252 6.23065 9.55824C6.33008 9.72064 6.45603 9.83002 6.60849 9.88636C6.76426 9.93939 6.92833 9.96591 7.10067 9.96591C7.22994 9.96591 7.336 9.95928 7.41886 9.94602C7.50172 9.92945 7.568 9.91619 7.61772 9.90625L7.85636 10.9602C7.77681 10.9901 7.66578 11.0199 7.52326 11.0497C7.38074 11.0829 7.20011 11.0994 6.98136 11.0994C6.64992 11.0994 6.32511 11.0282 6.00692 10.8857C5.69206 10.7431 5.43022 10.526 5.22141 10.2344C5.01592 9.94271 4.91317 9.57481 4.91317 9.13068V1.53409ZM13.5836 6.08807V7.18182H9.12908V6.08807H13.5836ZM15.6481 11V3.36364H16.8214V11H15.6481ZM16.2447 2.09091C16.016 2.09091 15.8188 2.01302 15.6531 1.85724C15.4906 1.70147 15.4094 1.5142 15.4094 1.29545C15.4094 1.0767 15.4906 0.889441 15.6531 0.733664C15.8188 0.577888 16.016 0.5 16.2447 0.5C16.4734 0.5 16.6689 0.577888 16.8313 0.733664C16.997 0.889441 17.0799 1.0767 17.0799 1.29545C17.0799 1.5142 16.997 1.70147 16.8313 1.85724C16.6689 2.01302 16.4734 2.09091 16.2447 2.09091ZM20.1436 6.40625V11H18.9703V3.36364H20.1039V4.55682H20.2033C20.3823 4.16903 20.6541 3.85748 21.0186 3.62216C21.3832 3.38352 21.8539 3.2642 22.4306 3.2642C22.9476 3.2642 23.4 3.37027 23.7878 3.58239C24.1756 3.79119 24.4772 4.10938 24.6926 4.53693C24.9081 4.96117 25.0158 5.49811 25.0158 6.14773V11H23.8425V6.22727C23.8425 5.62737 23.6867 5.16004 23.3752 4.82528C23.0636 4.48722 22.6361 4.31818 22.0925 4.31818C21.718 4.31818 21.3832 4.39938 21.0882 4.56179C20.7966 4.72419 20.5662 4.96117 20.3972 5.27273C20.2282 5.58428 20.1436 5.96212 20.1436 6.40625ZM30.2621 11.1591C29.5462 11.1591 28.9297 10.9901 28.4126 10.652C27.8956 10.3139 27.4979 9.84825 27.2195 9.25497C26.9411 8.66169 26.8018 7.9839 26.8018 7.22159C26.8018 6.44602 26.9444 5.7616 27.2294 5.16832C27.5178 4.57173 27.9188 4.10606 28.4325 3.77131C28.9496 3.43324 29.5528 3.2642 30.2422 3.2642C30.7791 3.2642 31.263 3.36364 31.6939 3.5625C32.1248 3.76136 32.4777 4.03977 32.7528 4.39773C33.0279 4.75568 33.1986 5.1733 33.2649 5.65057H32.0916C32.0021 5.30256 31.8033 4.99432 31.495 4.72585C31.1901 4.45407 30.7791 4.31818 30.2621 4.31818C29.8047 4.31818 29.4036 4.4375 29.0589 4.67614C28.7176 4.91146 28.4508 5.24455 28.2585 5.67543C28.0696 6.10298 27.9751 6.60511 27.9751 7.18182C27.9751 7.77178 28.0679 8.28551 28.2536 8.72301C28.4425 9.16051 28.7076 9.50024 29.049 9.74219C29.3937 9.98414 29.7981 10.1051 30.2621 10.1051C30.567 10.1051 30.8438 10.0521 31.0923 9.94602C31.3409 9.83996 31.5514 9.6875 31.7237 9.48864C31.8961 9.28977 32.0187 9.05114 32.0916 8.77273H33.2649C33.1986 9.22348 33.0346 9.6295 32.7727 9.99077C32.5142 10.3487 32.1712 10.6338 31.7436 10.8459C31.3194 11.0547 30.8255 11.1591 30.2621 11.1591ZM39.7926 7.87784V3.36364H40.9659V11H39.7926V9.70739H39.7131C39.5341 10.0952 39.2557 10.425 38.8778 10.6967C38.5 10.9652 38.0227 11.0994 37.446 11.0994C36.9688 11.0994 36.5445 10.995 36.1733 10.7862C35.8021 10.5741 35.5104 10.2559 35.2983 9.83168C35.0862 9.40412 34.9801 8.86553 34.9801 8.21591V3.36364H36.1534V8.13636C36.1534 8.69318 36.3092 9.13731 36.6207 9.46875C36.9356 9.80019 37.3366 9.96591 37.8239 9.96591C38.1155 9.96591 38.4122 9.89134 38.7138 9.74219C39.0187 9.59304 39.2739 9.36435 39.4794 9.05611C39.6882 8.74787 39.7926 8.35511 39.7926 7.87784ZM43.274 11V0.818182H44.4473V4.5767H44.5467C44.6329 4.44413 44.7522 4.27509 44.9047 4.0696C45.0604 3.8608 45.2825 3.67519 45.5708 3.51278C45.8625 3.34706 46.2569 3.2642 46.7541 3.2642C47.3971 3.2642 47.9638 3.42495 48.4544 3.74645C48.9449 4.06794 49.3277 4.52367 49.6028 5.11364C49.8779 5.7036 50.0154 6.39962 50.0154 7.2017C50.0154 8.01042 49.8779 8.71141 49.6028 9.30469C49.3277 9.89465 48.9466 10.352 48.4593 10.6768C47.9721 10.9983 47.4103 11.1591 46.774 11.1591C46.2834 11.1591 45.8907 11.0779 45.5957 10.9155C45.3007 10.7498 45.0737 10.5625 44.9146 10.3537C44.7555 10.1416 44.6329 9.96591 44.5467 9.8267H44.4075V11H43.274ZM44.4274 7.18182C44.4274 7.75852 44.5119 8.26728 44.6809 8.7081C44.85 9.1456 45.0969 9.48864 45.4217 9.73722C45.7465 9.98248 46.1442 10.1051 46.6149 10.1051C47.1054 10.1051 47.5147 9.97585 47.8429 9.71733C48.1743 9.45549 48.4229 9.10417 48.5886 8.66335C48.7576 8.21922 48.8422 7.72538 48.8422 7.18182C48.8422 6.64489 48.7593 6.16098 48.5936 5.73011C48.4312 5.29593 48.1842 4.95289 47.8528 4.70099C47.5247 4.44579 47.112 4.31818 46.6149 4.31818C46.1376 4.31818 45.7366 4.43916 45.4118 4.68111C45.0869 4.91974 44.8417 5.2545 44.676 5.68537C44.5102 6.11293 44.4274 6.61174 44.4274 7.18182ZM54.0574 11.179C53.5734 11.179 53.1343 11.0878 52.7399 10.9055C52.3455 10.7199 52.0323 10.4531 51.8002 10.1051C51.5682 9.75379 51.4522 9.32955 51.4522 8.83239C51.4522 8.39489 51.5384 8.04025 51.7108 7.76847C51.8831 7.49337 52.1135 7.27794 52.4018 7.12216C52.6902 6.96638 53.0083 6.85038 53.3564 6.77415C53.7077 6.6946 54.0607 6.63163 54.4153 6.58523C54.8793 6.52557 55.2555 6.48082 55.5439 6.45099C55.8355 6.41785 56.0476 6.36316 56.1802 6.28693C56.3161 6.2107 56.3841 6.07812 56.3841 5.8892V5.84943C56.3841 5.3589 56.2498 4.97775 55.9814 4.70597C55.7162 4.43419 55.3135 4.2983 54.7733 4.2983C54.2131 4.2983 53.774 4.42093 53.4558 4.66619C53.1376 4.91146 52.9139 5.1733 52.7846 5.4517L51.671 5.05398C51.8699 4.58996 52.135 4.22869 52.4664 3.97017C52.8012 3.70833 53.1658 3.52604 53.5602 3.4233C53.9579 3.31723 54.349 3.2642 54.7335 3.2642C54.9788 3.2642 55.2605 3.29403 55.5787 3.35369C55.9002 3.41004 56.21 3.5277 56.5083 3.70668C56.81 3.88565 57.0602 4.15578 57.2591 4.51705C57.4579 4.87831 57.5574 5.36222 57.5574 5.96875V11H56.3841V9.96591H56.3244C56.2449 10.1316 56.1123 10.3089 55.9267 10.4979C55.7411 10.6868 55.4941 10.8475 55.1859 10.9801C54.8777 11.1127 54.5015 11.179 54.0574 11.179ZM54.2363 10.125C54.7003 10.125 55.0914 10.0339 55.4096 9.85156C55.7311 9.66927 55.9731 9.43395 56.1355 9.1456C56.3012 8.85724 56.3841 8.55398 56.3841 8.2358V7.16193C56.3343 7.22159 56.225 7.27628 56.0559 7.32599C55.8902 7.3724 55.698 7.41383 55.4792 7.45028C55.2638 7.48343 55.0533 7.51326 54.8478 7.53977C54.6457 7.56297 54.4816 7.58286 54.3556 7.59943C54.0507 7.6392 53.7657 7.70384 53.5005 7.79332C53.2387 7.8795 53.0266 8.01042 52.8642 8.18608C52.7051 8.35843 52.6255 8.59375 52.6255 8.89205C52.6255 9.29972 52.7763 9.60795 53.0779 9.81676C53.3829 10.0223 53.769 10.125 54.2363 10.125ZM63.0199 3.36364V4.35795H59.0625V3.36364H63.0199ZM60.2159 1.53409H61.3892V8.8125C61.3892 9.14394 61.4373 9.39252 61.5334 9.55824C61.6328 9.72064 61.7588 9.83002 61.9112 9.88636C62.067 9.93939 62.2311 9.96591 62.4034 9.96591C62.5327 9.96591 62.6387 9.95928 62.7216 9.94602C62.8045 9.92945 62.8707 9.91619 62.9205 9.90625L63.1591 10.9602C63.0795 10.9901 62.9685 11.0199 62.826 11.0497C62.6835 11.0829 62.5028 11.0994 62.2841 11.0994C61.9527 11.0994 61.6278 11.0282 61.3097 10.8857C60.9948 10.7431 60.733 10.526 60.5241 10.2344C60.3187 9.94271 60.2159 9.57481 60.2159 9.13068V1.53409ZM67.805 11.1591C67.1156 11.1591 66.5108 10.995 65.9904 10.6669C65.4734 10.3388 65.069 9.87973 64.7773 9.28977C64.489 8.69981 64.3448 8.01042 64.3448 7.22159C64.3448 6.42614 64.489 5.73177 64.7773 5.13849C65.069 4.54522 65.4734 4.08452 65.9904 3.75639C66.5108 3.42827 67.1156 3.2642 67.805 3.2642C68.4944 3.2642 69.0977 3.42827 69.6147 3.75639C70.1351 4.08452 70.5394 4.54522 70.8278 5.13849C71.1194 5.73177 71.2653 6.42614 71.2653 7.22159C71.2653 8.01042 71.1194 8.69981 70.8278 9.28977C70.5394 9.87973 70.1351 10.3388 69.6147 10.6669C69.0977 10.995 68.4944 11.1591 67.805 11.1591ZM67.805 10.1051C68.3287 10.1051 68.7596 9.97088 69.0977 9.70241C69.4357 9.43395 69.686 9.08097 69.8484 8.64347C70.0108 8.20597 70.092 7.73201 70.092 7.22159C70.092 6.71117 70.0108 6.23556 69.8484 5.79474C69.686 5.35393 69.4357 4.99763 69.0977 4.72585C68.7596 4.45407 68.3287 4.31818 67.805 4.31818C67.2814 4.31818 66.8505 4.45407 66.5124 4.72585C66.1744 4.99763 65.9241 5.35393 65.7617 5.79474C65.5993 6.23556 65.5181 6.71117 65.5181 7.22159C65.5181 7.73201 65.5993 8.20597 65.7617 8.64347C65.9241 9.08097 66.1744 9.43395 66.5124 9.70241C66.8505 9.97088 67.2814 10.1051 67.805 10.1051ZM73.0563 11V3.36364H74.1898V4.51705H74.2694C74.4086 4.1392 74.6605 3.83262 75.025 3.5973C75.3896 3.36198 75.8006 3.24432 76.258 3.24432C76.3442 3.24432 76.4519 3.24597 76.5811 3.24929C76.7104 3.2526 76.8082 3.25758 76.8745 3.2642V4.45739C76.8347 4.44744 76.7435 4.43253 76.601 4.41264C76.4618 4.38944 76.3143 4.37784 76.1586 4.37784C75.7873 4.37784 75.4559 4.45573 75.1642 4.61151C74.8759 4.76397 74.6472 4.97609 74.4782 5.24787C74.3124 5.51634 74.2296 5.82292 74.2296 6.16761V11H73.0563Z" fill="#2965F1"/>
</svg>
